<?xml version="1.0" encoding="utf-8"?>
<svg viewBox="-8.276 -6.207 283.295 32.24" xmlns="http://www.w3.org/2000/svg" xmlns:bx="https://boxy-svg.com">
  <defs>
    <clipPath id="clip0_1371_2450">
      <rect width="77" height="77" fill="white" transform="translate(102)"/>
    </clipPath>
    <bx:guide x="549.525" y="121.168" angle="0"/>
  </defs>
  <path d="M -8.276 8.047 L -8.276 22.302 L -2.53 22.302 L 3.217 22.302 L 3.217 20.585 L 3.217 18.869 L -0.769 18.839 L -4.769 18.794 L -4.814 8.003 L -4.844 -2.774 L -2.605 -2.774 L -0.366 -2.774 L -0.366 -4.491 L -0.366 -6.207 L -4.321 -6.207 L -8.276 -6.207 L -8.276 8.047 Z" stroke="none" style="fill: rgb(255, 255, 255);"/>
  <path d="M 2.022 -4.491 L 2.022 -2.774 L 2.769 -2.774 L 3.515 -2.774 L 3.515 -4.491 L 3.515 -6.207 L 2.769 -6.207 L 2.022 -6.207 L 2.022 -4.491 Z" stroke="none" style="fill: rgb(255, 255, 255);"/>
  <path d="M 8.888 -4.491 L 8.888 -2.774 L 12.844 -2.774 L 16.799 -2.774 L 16.799 8.047 L 16.799 18.869 L 14.635 18.869 L 12.471 18.869 L 12.471 20.585 L 12.471 22.302 L 16.351 22.302 L 20.232 22.302 L 20.232 8.047 L 20.232 -6.207 L 14.56 -6.207 L 8.888 -6.207 L 8.888 -4.491 Z" stroke="none" style="fill: rgb(255, 255, 255);"/>
  <path d="M 80.682 0.957 C 80.682 3.167 80.638 4.988 80.593 4.988 C 80.548 4.988 80.205 4.734 79.862 4.42 C 79.1 3.764 78.085 3.375 76.667 3.256 C 72.921 2.913 69.652 5.57 68.831 9.644 C 67.801 14.645 70.189 19.197 74.264 20.078 C 74.697 20.167 75.742 20.212 76.578 20.182 C 77.921 20.137 78.205 20.078 78.981 19.69 C 79.623 19.361 79.996 19.033 80.354 18.51 L 80.832 17.794 L 80.832 18.928 L 80.832 20.063 L 83.295 20.063 L 85.757 20.063 L 85.757 8.495 L 85.757 -3.073 L 83.22 -3.073 L 80.682 -3.073 L 80.682 0.957 Z M 78.876 8.301 C 80.399 9.032 81.115 11.436 80.384 13.391 C 79.668 15.301 77.697 16.107 75.817 15.227 C 74.503 14.615 73.831 13.421 73.831 11.704 C 73.817 8.809 76.369 7.092 78.876 8.301 Z" stroke="none" style="fill: rgb(255, 255, 255);"/>
  <path d="M 160.984 0.972 L 160.984 5.017 L 160.462 4.555 C 158.701 3.002 155.76 2.778 153.223 3.973 C 152.253 4.435 150.67 6.077 150.103 7.211 C 149.387 8.615 149.044 10.152 149.044 11.928 C 149.044 14.525 149.715 16.466 151.148 18.033 C 152.521 19.525 154.208 20.212 156.507 20.212 C 158.745 20.212 159.999 19.69 160.79 18.436 L 161.208 17.764 L 161.253 18.913 L 161.298 20.063 L 163.716 20.033 L 166.134 19.988 L 166.179 8.45 L 166.208 -3.073 L 163.596 -3.073 L 160.984 -3.073 L 160.984 0.972 Z M 158.522 7.988 C 159.432 8.212 160.447 9.137 160.79 10.032 C 160.955 10.465 161.059 11.122 161.059 11.779 C 161.059 13.152 160.477 14.406 159.537 15.048 C 158.716 15.615 157.417 15.749 156.432 15.361 C 155.581 15.048 154.671 14.018 154.402 13.092 C 153.775 10.824 154.775 8.644 156.716 8.032 C 157.492 7.794 157.716 7.779 158.522 7.988 Z" stroke="none" style="fill: rgb(255, 255, 255);"/>
  <g transform="matrix(1, 0, 0, 1, -124.98098, -106.207001)">
    <path d="M 329.699 114.568 L 329.699 126.001 L 334.967 125.926 C 340.565 125.852 341.475 125.747 343.789 124.941 C 347.192 123.747 349.64 121.105 350.535 117.687 C 350.908 116.254 350.923 112.732 350.55 111.344 C 349.789 108.493 347.968 106.194 345.431 104.896 C 342.535 103.403 340.863 103.134 334.445 103.134 L 329.699 103.134 L 329.699 114.568 Z M 340.117 107.403 C 343.759 108.135 345.923 110.403 346.222 113.807 C 346.475 116.956 345.072 119.613 342.49 120.822 C 340.744 121.658 339.908 121.822 336.982 121.896 L 334.326 121.971 L 334.326 114.568 L 334.326 107.164 L 336.639 107.164 C 338.147 107.164 339.371 107.239 340.117 107.403 Z" stroke="none" style="fill: rgb(255, 255, 255);"/>
    <path d="M 358.595 110.687 C 355.595 111.418 353.252 114.016 352.804 117.12 C 351.968 122.882 356.879 127.285 362.76 126.046 C 365.745 125.419 368.043 123.165 368.745 120.21 C 369.043 118.911 368.954 116.851 368.521 115.642 C 367.685 113.239 365.581 111.344 363.043 110.687 C 361.909 110.389 359.789 110.389 358.595 110.687 Z M 362.357 114.404 C 363.192 114.762 364.133 115.777 364.476 116.687 C 365.088 118.299 364.715 120.314 363.625 121.374 C 362.7 122.255 362.163 122.464 360.819 122.464 C 359.774 122.464 359.536 122.404 358.909 122.046 C 357.162 121.016 356.386 118.493 357.222 116.523 C 357.536 115.747 358.356 114.911 359.177 114.538 C 360.073 114.12 361.506 114.06 362.357 114.404 Z" stroke="none" style="fill: rgb(255, 255, 255);"/>
    <path d="M 377.611 110.553 C 376.73 110.702 375.327 111.254 374.521 111.777 C 370.372 114.448 369.715 120.344 373.178 123.807 C 374.7 125.329 376.432 126.061 378.805 126.21 C 381.104 126.359 383.387 125.703 384.775 124.494 L 385.298 124.031 L 383.805 122.628 L 382.313 121.225 L 381.94 121.568 C 381.193 122.255 380.596 122.464 379.327 122.464 C 378.283 122.464 378.044 122.404 377.417 122.046 C 375.193 120.732 374.715 117.419 376.447 115.433 C 377.148 114.642 378.208 114.18 379.372 114.18 C 380.402 114.18 381.074 114.404 381.865 115.016 L 382.387 115.404 L 383.865 114.016 L 385.328 112.627 L 384.79 112.18 C 384.089 111.612 382.372 110.821 381.372 110.612 C 380.611 110.463 378.402 110.418 377.611 110.553 Z" stroke="none" style="fill: rgb(255, 255, 255);"/>
    <path d="M 391.791 110.687 C 388.492 111.583 387.134 115.001 389.179 117.284 C 389.88 118.06 390.85 118.628 393.328 119.702 C 395.179 120.508 395.761 121.15 395.433 122.016 C 395.298 122.359 394.567 122.688 393.91 122.688 C 393.119 122.688 391.85 122.225 390.597 121.479 C 390.015 121.135 389.522 120.881 389.492 120.911 C 389.089 121.389 387.611 123.971 387.671 124.12 C 387.716 124.225 388.432 124.658 389.283 125.061 C 390.91 125.852 392.522 126.27 393.925 126.27 C 397.343 126.27 400 124.195 400 121.523 C 400 119.389 398.881 118.21 395.492 116.792 C 393.388 115.911 393.044 115.717 392.85 115.254 C 392.313 114.09 393.94 113.672 396.224 114.404 C 396.866 114.613 397.492 114.836 397.612 114.911 C 397.776 115.03 398.015 114.732 398.746 113.463 C 399.269 112.598 399.657 111.836 399.612 111.777 C 399.493 111.568 397.627 110.911 396.522 110.687 C 395.119 110.389 392.88 110.389 391.791 110.687 Z" stroke="none" style="fill: rgb(255, 255, 255);"/>
  </g>
  <path d="M 31.128 8.943 L 31.128 20.063 L 33.591 20.063 L 36.054 20.063 L 36.054 16.481 L 36.054 12.883 L 37.203 12.928 L 38.352 12.973 L 40.233 16.481 L 42.129 19.988 L 45.368 20.033 C 47.278 20.048 48.592 20.018 48.592 19.928 C 48.592 19.854 47.592 18.078 46.353 15.973 C 45.129 13.883 44.114 12.107 44.114 12.033 C 44.114 11.958 44.263 11.839 44.457 11.749 C 45.009 11.48 46.218 10.331 46.905 9.421 C 48.054 7.853 48.427 5.719 47.92 3.719 C 47.203 1.002 44.726 -1.49 42.203 -2.013 C 41.711 -2.117 39.457 -2.177 36.278 -2.177 L 31.128 -2.177 L 31.128 8.943 Z M 41.278 3.271 C 42.009 3.719 42.367 4.405 42.367 5.42 C 42.367 6.42 42.039 7.122 41.382 7.525 C 40.964 7.794 40.621 7.823 38.487 7.823 L 36.054 7.823 L 36.054 5.346 L 36.054 2.868 L 38.412 2.928 C 40.442 2.972 40.83 3.017 41.278 3.271 Z" stroke="none" style="fill: rgb(255, 255, 255);"/>
  <path d="M 1.306 3.211 L 1.351 5.346 L 4.366 6.704 C 6.023 7.435 7.396 8.077 7.381 8.122 C 7.381 8.167 6.023 8.809 4.366 9.555 L 1.351 10.913 L 1.306 13.033 C 1.291 14.227 1.321 15.137 1.396 15.107 C 1.47 15.092 3.888 13.988 6.784 12.674 L 12.023 10.286 L 12.023 8.122 L 12.023 5.943 L 6.784 3.555 C 3.903 2.256 1.485 1.152 1.41 1.137 C 1.321 1.107 1.291 1.928 1.306 3.211 Z" stroke="none" style="fill: rgb(255, 255, 255);"/>
  <path d="M 56.577 3.361 C 53.129 3.928 50.338 6.525 49.547 9.868 C 49.218 11.242 49.323 13.555 49.756 14.674 C 50.666 17.018 52.681 18.913 55.159 19.779 C 56.622 20.287 59.308 20.346 60.995 19.928 C 62.547 19.54 63.771 18.943 64.921 18.018 L 65.801 17.316 L 64.174 15.779 L 62.547 14.257 L 62.1 14.674 C 60.443 16.257 57.114 16.406 55.816 14.958 C 55.458 14.585 55.01 13.749 55.01 13.495 C 55.01 13.391 56.861 13.346 60.816 13.346 C 65.13 13.346 66.667 13.301 66.742 13.167 C 66.936 12.868 66.831 10.734 66.592 9.749 C 65.443 5.211 61.309 2.569 56.577 3.361 Z M 59.458 7.614 C 60.368 7.988 61.04 8.749 61.338 9.719 L 61.443 10.062 L 58.159 10.062 C 54.472 10.062 54.607 10.107 55.159 9.018 C 55.458 8.42 56.159 7.809 56.801 7.54 C 57.383 7.316 58.846 7.346 59.458 7.614 Z" stroke="none" style="fill: rgb(255, 255, 255);"/>
  <path d="M 89.489 14.764 L 89.489 26.033 L 92.175 26.033 L 94.862 26.033 L 94.862 22.346 L 94.862 18.66 L 95.28 19.063 C 96.056 19.809 97.012 20.108 98.832 20.182 C 101.594 20.287 103.057 19.779 104.728 18.107 C 107.952 14.913 108.102 8.913 105.072 5.719 C 103.504 4.077 101.4 3.361 98.668 3.54 C 97.101 3.644 96.056 3.958 95.28 4.555 C 94.982 4.793 94.698 4.988 94.653 4.988 C 94.608 4.988 94.564 4.644 94.564 4.241 L 94.564 3.495 L 92.026 3.495 L 89.489 3.495 L 89.489 14.764 Z M 100.012 8.838 C 100.773 9.226 101.191 9.674 101.564 10.51 C 102.161 11.824 101.862 13.495 100.892 14.421 C 99.43 15.779 96.564 15.525 95.504 13.928 C 95.131 13.361 95.086 13.167 95.086 12.003 C 95.086 10.824 95.131 10.644 95.534 9.973 C 96.176 8.928 97.265 8.376 98.519 8.465 C 99.012 8.495 99.683 8.674 100.012 8.838 Z" stroke="none" style="fill: rgb(255, 255, 255);"/>
  <path d="M 114.759 3.719 C 111.102 4.749 108.803 8.361 109.102 12.6 C 109.251 14.928 110.027 16.719 111.475 18.152 C 113.042 19.705 114.744 20.287 117.311 20.182 C 119.072 20.093 120.162 19.749 121.102 18.928 L 121.729 18.391 L 121.729 19.227 L 121.729 20.063 L 124.266 20.063 L 126.804 20.063 L 126.804 11.779 L 126.804 3.495 L 124.192 3.495 L 121.58 3.495 L 121.58 4.241 C 121.58 4.644 121.55 4.988 121.505 4.988 C 121.46 4.988 121.147 4.779 120.804 4.54 C 120.46 4.286 119.848 3.987 119.43 3.853 C 118.341 3.525 115.729 3.435 114.759 3.719 Z M 119.624 8.301 C 121.147 9.032 121.863 11.436 121.132 13.391 C 120.415 15.316 118.445 16.107 116.55 15.227 C 115.162 14.57 114.475 13.227 114.594 11.406 C 114.803 8.629 117.206 7.137 119.624 8.301 Z" stroke="none" style="fill: rgb(255, 255, 255);"/>
  <path d="M 130.237 11.779 L 130.237 20.063 L 132.909 20.063 L 135.595 20.063 L 135.64 15.167 C 135.685 10.465 135.7 10.256 136.013 9.674 C 136.461 8.823 137.133 8.301 137.909 8.197 C 139.252 7.988 140.327 8.495 140.864 9.585 C 141.192 10.271 141.207 10.406 141.252 15.182 L 141.297 20.063 L 143.864 20.033 L 146.432 19.988 L 146.432 14.018 C 146.417 8.271 146.402 8.017 146.103 7.197 C 145.476 5.54 144.611 4.585 143.133 3.913 C 142.506 3.629 142.148 3.57 140.536 3.57 C 138.267 3.57 136.849 3.928 135.998 4.749 L 135.461 5.241 L 135.461 4.376 L 135.461 3.495 L 132.849 3.495 L 130.237 3.495 L 130.237 11.779 Z" stroke="none" style="fill: rgb(255, 255, 255);"/>
  <path d="M 174.612 3.704 C 171.91 4.39 169.835 6.555 169.104 9.465 C 168.776 10.749 168.776 13.137 169.089 14.376 C 169.492 15.869 170.298 17.257 171.358 18.257 C 172.985 19.779 174.552 20.302 177.119 20.182 C 178.403 20.122 178.836 20.048 179.597 19.705 C 180.09 19.481 180.702 19.093 180.94 18.839 L 181.358 18.391 L 181.433 19.197 L 181.508 19.988 L 184.015 20.033 L 186.508 20.063 L 186.508 11.779 L 186.508 3.495 L 183.97 3.495 L 181.433 3.495 L 181.433 4.331 L 181.433 5.152 L 180.791 4.689 C 179.702 3.913 178.702 3.614 176.955 3.555 C 175.97 3.525 175.104 3.57 174.612 3.704 Z M 179.328 8.271 C 180.478 8.853 181.134 10.092 181.134 11.674 C 181.134 13.48 180.537 14.6 179.239 15.227 C 177.03 16.316 174.597 14.824 174.328 12.197 C 174 9.122 176.761 6.958 179.328 8.271 Z" stroke="none" style="fill: rgb(255, 255, 255);"/>
  <path d="M 9.038 20.585 L 9.038 22.302 L 9.784 22.302 L 10.53 22.302 L 10.53 20.585 L 10.53 18.869 L 9.784 18.869 L 9.038 18.869 L 9.038 20.585 Z" stroke="none" style="fill: rgb(255, 255, 255);"/>
  <g clip-path="url(#clip0_1371_2450)" transform="matrix(0.370234, 0, 0, 0.370234, -46.039867, -6.207)" style="">
    <path fill-rule="evenodd" clip-rule="evenodd" d="M102 0V77H132.988V67.6097H111.39V9.39017H123.27V0H102Z" style="fill: rgb(255, 255, 255);"/>
    <path fill-rule="evenodd" clip-rule="evenodd" d="M129.656 9.39017H133.856V0H129.656V9.39017Z" style="fill: rgb(255, 255, 255);"/>
    <path fill-rule="evenodd" clip-rule="evenodd" d="M148.113 0V9.39017H169.711V67.6097H157.831V77H179.101V0H148.113Z" style="fill: rgb(255, 255, 255);"/>
    <path fill-rule="evenodd" clip-rule="evenodd" d="M148.529 77H152.729V67.6097H148.529V77Z" style="fill: rgb(255, 255, 255);"/>
    <path fill-rule="evenodd" clip-rule="evenodd" d="M127.658 19.5438V31.3827L144.025 38.8122H144.025L157.064 32.8931L127.658 19.5438Z" style="fill: rgb(255, 255, 255);"/>
    <path fill-rule="evenodd" clip-rule="evenodd" d="M157.064 32.8931V32.8931L144.025 38.8121L127.658 46.2419V58.0808L157.064 44.7315V32.8931Z" style="fill: rgb(255, 255, 255);"/>
  </g>
</svg>