<?xml version="1.0" encoding="utf-8"?>
<svg viewBox="-100 83.694 490.586 55.465" xmlns="http://www.w3.org/2000/svg" xmlns:bx="https://boxy-svg.com">
  <defs>
    <clipPath id="clip0_1371_2450">
      <rect width="77" height="77" fill="white" transform="translate(102)"/>
    </clipPath>
    <bx:guide x="549.525" y="121.168" angle="0"/>
    <view id="view-1">
      <title>View 1</title>
    </view>
  </defs>
  <path d="M -100 108.216 L -100 132.741 L -90.114 132.741 L -80.227 132.741 L -80.227 129.788 L -80.227 126.834 L -87.086 126.784 L -93.966 126.706 L -94.045 108.141 L -94.095 89.601 L -90.243 89.601 L -86.393 89.601 L -86.393 86.646 L -86.393 83.694 L -93.196 83.694 L -100 83.694 L -100 108.216 Z" stroke="none" fill="#000000" style=""/>
  <path d="M -82.284 86.646 L -82.284 89.601 L -80.999 89.601 L -79.715 89.601 L -79.715 86.646 L -79.715 83.694 L -80.999 83.694 L -82.284 83.694 L -82.284 86.646 Z" stroke="none" fill="#000000" style=""/>
  <path d="M -70.472 86.646 L -70.472 89.601 L -63.665 89.601 L -56.861 89.601 L -56.861 108.216 L -56.861 126.834 L -60.584 126.834 L -64.306 126.834 L -64.306 129.788 L -64.306 132.741 L -57.631 132.741 L -50.954 132.741 L -50.954 108.216 L -50.954 83.694 L -60.712 83.694 L -70.472 83.694 L -70.472 86.646 Z" stroke="none" fill="#000000" style=""/>
  <path d="M 53.044 96.019 C 53.044 99.821 52.968 102.954 52.89 102.954 C 52.814 102.954 52.223 102.517 51.634 101.977 C 50.323 100.848 48.576 100.18 46.137 99.974 C 39.692 99.385 34.067 103.954 32.656 110.964 C 30.883 119.568 34.991 127.399 42.002 128.914 C 42.747 129.068 44.545 129.145 45.983 129.094 C 48.295 129.016 48.782 128.914 50.117 128.248 C 51.221 127.681 51.864 127.117 52.479 126.217 L 53.302 124.986 L 53.302 126.937 L 53.302 128.889 L 57.539 128.889 L 61.776 128.889 L 61.776 108.988 L 61.776 89.086 L 57.41 89.086 L 53.044 89.086 L 53.044 96.019 Z M 49.936 108.654 C 52.557 109.912 53.789 114.047 52.531 117.41 C 51.299 120.696 47.908 122.083 44.675 120.569 C 42.413 119.516 41.258 117.462 41.258 114.509 C 41.233 109.528 45.623 106.574 49.936 108.654 Z" stroke="none" style="fill: rgb(47, 44, 44);"/>
  <path d="M 191.195 96.045 L 191.195 103.005 L 190.298 102.209 C 187.268 99.537 182.209 99.152 177.843 101.208 C 176.174 102.002 173.452 104.827 172.476 106.778 C 171.243 109.194 170.654 111.838 170.654 114.895 C 170.654 119.362 171.808 122.701 174.274 125.397 C 176.636 127.963 179.539 129.145 183.495 129.145 C 187.344 129.145 189.502 128.248 190.861 126.09 L 191.582 124.934 L 191.658 126.91 L 191.736 128.889 L 195.896 128.837 L 200.056 128.761 L 200.134 108.909 L 200.182 89.086 L 195.689 89.086 L 191.195 89.086 L 191.195 96.045 Z M 186.96 108.115 C 188.526 108.5 190.272 110.092 190.861 111.633 C 191.147 112.377 191.325 113.507 191.325 114.637 C 191.325 116.999 190.324 119.157 188.707 120.262 C 187.293 121.237 185.06 121.468 183.365 120.799 C 181.901 120.262 180.334 118.489 179.871 116.896 C 178.794 112.993 180.515 109.243 183.854 108.191 C 185.188 107.781 185.575 107.755 186.96 108.115 Z" stroke="none" style="fill: rgb(47, 44, 44);"/>
  <g transform="matrix(1.720405, 0, 0, 1.720405, -300.779938, -88.347076)" style="">
    <path d="M 329.699 114.568 L 329.699 126.001 L 334.967 125.926 C 340.565 125.852 341.475 125.747 343.789 124.941 C 347.192 123.747 349.64 121.105 350.535 117.687 C 350.908 116.254 350.923 112.732 350.55 111.344 C 349.789 108.493 347.968 106.194 345.431 104.896 C 342.535 103.403 340.863 103.134 334.445 103.134 L 329.699 103.134 L 329.699 114.568 Z M 340.117 107.403 C 343.759 108.135 345.923 110.403 346.222 113.807 C 346.475 116.956 345.072 119.613 342.49 120.822 C 340.744 121.658 339.908 121.822 336.982 121.896 L 334.326 121.971 L 334.326 114.568 L 334.326 107.164 L 336.639 107.164 C 338.147 107.164 339.371 107.239 340.117 107.403 Z" stroke="none" style="fill: rgb(216, 85, 86);"/>
    <path d="M 358.595 110.687 C 355.595 111.418 353.252 114.016 352.804 117.12 C 351.968 122.882 356.879 127.285 362.76 126.046 C 365.745 125.419 368.043 123.165 368.745 120.21 C 369.043 118.911 368.954 116.851 368.521 115.642 C 367.685 113.239 365.581 111.344 363.043 110.687 C 361.909 110.389 359.789 110.389 358.595 110.687 Z M 362.357 114.404 C 363.192 114.762 364.133 115.777 364.476 116.687 C 365.088 118.299 364.715 120.314 363.625 121.374 C 362.7 122.255 362.163 122.464 360.819 122.464 C 359.774 122.464 359.536 122.404 358.909 122.046 C 357.162 121.016 356.386 118.493 357.222 116.523 C 357.536 115.747 358.356 114.911 359.177 114.538 C 360.073 114.12 361.506 114.06 362.357 114.404 Z" stroke="none" style="fill: rgb(216, 85, 86);"/>
    <path d="M 377.611 110.553 C 376.73 110.702 375.327 111.254 374.521 111.777 C 370.372 114.448 369.715 120.344 373.178 123.807 C 374.7 125.329 376.432 126.061 378.805 126.21 C 381.104 126.359 383.387 125.703 384.775 124.494 L 385.298 124.031 L 383.805 122.628 L 382.313 121.225 L 381.94 121.568 C 381.193 122.255 380.596 122.464 379.327 122.464 C 378.283 122.464 378.044 122.404 377.417 122.046 C 375.193 120.732 374.715 117.419 376.447 115.433 C 377.148 114.642 378.208 114.18 379.372 114.18 C 380.402 114.18 381.074 114.404 381.865 115.016 L 382.387 115.404 L 383.865 114.016 L 385.328 112.627 L 384.79 112.18 C 384.089 111.612 382.372 110.821 381.372 110.612 C 380.611 110.463 378.402 110.418 377.611 110.553 Z" stroke="none" style="fill: rgb(216, 85, 86);"/>
    <path d="M 391.791 110.687 C 388.492 111.583 387.134 115.001 389.179 117.284 C 389.88 118.06 390.85 118.628 393.328 119.702 C 395.179 120.508 395.761 121.15 395.433 122.016 C 395.298 122.359 394.567 122.688 393.91 122.688 C 393.119 122.688 391.85 122.225 390.597 121.479 C 390.015 121.135 389.522 120.881 389.492 120.911 C 389.089 121.389 387.611 123.971 387.671 124.12 C 387.716 124.225 388.432 124.658 389.283 125.061 C 390.91 125.852 392.522 126.27 393.925 126.27 C 397.343 126.27 400 124.195 400 121.523 C 400 119.389 398.881 118.21 395.492 116.792 C 393.388 115.911 393.044 115.717 392.85 115.254 C 392.313 114.09 393.94 113.672 396.224 114.404 C 396.866 114.613 397.492 114.836 397.612 114.911 C 397.776 115.03 398.015 114.732 398.746 113.463 C 399.269 112.598 399.657 111.836 399.612 111.777 C 399.493 111.568 397.627 110.911 396.522 110.687 C 395.119 110.389 392.88 110.389 391.791 110.687 Z" stroke="none" style="fill: rgb(216, 85, 86);"/>
  </g>
  <path d="M -32.209 109.758 L -32.209 128.889 L -27.973 128.889 L -23.735 128.889 L -23.735 122.727 L -23.735 116.536 L -21.758 116.613 L -19.781 116.691 L -16.545 122.727 L -13.282 128.761 L -7.71 128.837 C -4.424 128.862 -2.164 128.813 -2.164 128.657 C -2.164 128.53 -3.884 125.475 -6.016 121.854 C -8.121 118.257 -9.868 115.202 -9.868 115.074 C -9.868 114.944 -9.612 114.74 -9.278 114.585 C -8.328 114.122 -6.248 112.146 -5.066 110.581 C -3.09 107.884 -2.448 104.212 -3.32 100.771 C -4.553 96.097 -8.814 91.809 -13.156 90.909 C -14.003 90.73 -17.879 90.628 -23.349 90.628 L -32.209 90.628 L -32.209 109.758 Z M -14.747 99.999 C -13.489 100.771 -12.874 101.95 -12.874 103.697 C -12.874 105.418 -13.438 106.626 -14.569 107.319 C -15.287 107.781 -15.877 107.832 -19.548 107.832 L -23.735 107.832 L -23.735 103.571 L -23.735 99.306 L -19.677 99.41 C -16.185 99.486 -15.518 99.563 -14.747 99.999 Z" stroke="none" style="fill: rgb(47, 44, 44);"/>
  <path d="M -83.514 99.897 L -83.438 103.571 L -78.25 105.906 C -75.399 107.163 -73.037 108.268 -73.064 108.346 C -73.064 108.424 -75.399 109.528 -78.25 110.812 L -83.438 113.147 L -83.514 116.795 C -83.542 118.848 -83.49 120.414 -83.361 120.363 C -83.233 120.337 -79.072 118.438 -74.092 116.177 L -65.078 112.068 L -65.078 108.346 L -65.078 104.598 L -74.092 100.489 C -79.048 98.253 -83.207 96.354 -83.336 96.329 C -83.49 96.277 -83.542 97.689 -83.514 99.897 Z" stroke="none" fill="#000000" style=""/>
  <path d="M 11.574 100.155 C 5.642 101.13 0.84 105.598 -0.521 111.35 C -1.086 113.714 -0.906 117.693 -0.162 119.618 C 1.404 123.65 4.87 126.91 9.135 128.4 C 11.65 129.275 16.272 129.376 19.174 128.657 C 21.843 127.989 23.95 126.962 25.928 125.371 L 27.443 124.164 L 24.643 121.519 L 21.843 118.9 L 21.075 119.618 C 18.225 122.342 12.497 122.597 10.264 120.106 C 9.648 119.464 8.877 118.027 8.877 117.589 C 8.877 117.41 12.063 117.334 18.867 117.334 C 26.289 117.334 28.932 117.255 29.061 117.025 C 29.395 116.512 29.214 112.84 28.804 111.145 C 26.826 103.337 19.715 98.792 11.574 100.155 Z M 16.529 107.472 C 18.096 108.115 19.251 109.424 19.764 111.093 L 19.945 111.683 L 14.295 111.683 C 7.952 111.683 8.184 111.76 9.135 109.888 C 9.648 108.859 10.855 107.807 11.959 107.344 C 12.96 106.958 15.477 107.01 16.529 107.472 Z" stroke="none" style="fill: rgb(47, 44, 44);"/>
  <path d="M 68.196 119.773 L 68.196 139.159 L 72.816 139.159 L 77.439 139.159 L 77.439 132.817 L 77.439 126.475 L 78.158 127.169 C 79.493 128.451 81.138 128.966 84.269 129.094 C 89.021 129.275 91.539 128.4 94.413 125.523 C 99.96 120.029 100.216 109.706 95.004 104.212 C 92.307 101.387 88.688 100.155 83.987 100.463 C 81.291 100.643 79.493 101.182 78.158 102.209 C 77.646 102.619 77.157 102.954 77.08 102.954 C 77.002 102.954 76.927 102.362 76.927 101.668 L 76.927 100.385 L 72.56 100.385 L 68.196 100.385 L 68.196 119.773 Z M 86.298 109.578 C 87.608 110.246 88.328 111.016 88.97 112.453 C 89.996 114.714 89.483 117.589 87.814 119.182 C 85.298 121.519 80.367 121.081 78.545 118.334 C 77.902 117.359 77.824 117.025 77.824 115.022 C 77.824 112.993 77.902 112.685 78.594 111.53 C 79.7 109.732 81.573 108.783 83.731 108.936 C 84.58 108.988 85.733 109.295 86.298 109.578 Z" stroke="none" style="fill: rgb(47, 44, 44);"/>
  <path d="M 111.671 100.771 C 105.379 102.543 101.423 108.757 101.937 116.05 C 102.195 120.055 103.529 123.136 106.02 125.601 C 108.715 128.273 111.645 129.275 116.061 129.094 C 119.091 128.941 120.966 128.349 122.583 126.937 L 123.661 126.012 L 123.661 127.451 L 123.661 128.889 L 128.026 128.889 L 132.393 128.889 L 132.393 114.637 L 132.393 100.385 L 127.899 100.385 L 123.406 100.385 L 123.406 101.668 C 123.406 102.362 123.354 102.954 123.276 102.954 C 123.199 102.954 122.661 102.595 122.07 102.184 C 121.478 101.747 120.426 101.232 119.705 101.002 C 117.833 100.437 113.339 100.281 111.671 100.771 Z M 120.04 108.654 C 122.661 109.912 123.892 114.047 122.635 117.41 C 121.402 120.722 118.012 122.083 114.751 120.569 C 112.364 119.44 111.182 117.128 111.387 113.996 C 111.746 109.218 115.88 106.651 120.04 108.654 Z" stroke="none" style="fill: rgb(47, 44, 44);"/>
  <path d="M 138.299 114.637 L 138.299 128.889 L 142.896 128.889 L 147.516 128.889 L 147.593 120.466 C 147.672 112.377 147.697 112.016 148.236 111.016 C 149.007 109.553 150.162 108.654 151.498 108.474 C 153.808 108.115 155.657 108.988 156.581 110.863 C 157.146 112.042 157.172 112.275 157.249 120.492 L 157.325 128.889 L 161.743 128.837 L 166.16 128.761 L 166.16 118.489 C 166.135 108.602 166.109 108.165 165.594 106.755 C 164.516 103.904 163.028 102.261 160.485 101.104 C 159.406 100.615 158.79 100.515 156.018 100.515 C 152.113 100.515 149.673 101.13 148.21 102.543 L 147.286 103.389 L 147.286 101.902 L 147.286 100.385 L 142.792 100.385 L 138.299 100.385 L 138.299 114.637 Z" stroke="none" style="fill: rgb(47, 44, 44);"/>
  <path d="M 214.641 100.744 C 209.992 101.925 206.423 105.65 205.165 110.657 C 204.601 112.865 204.601 116.973 205.14 119.105 C 205.834 121.673 207.22 124.061 209.044 125.782 C 211.842 128.4 214.538 129.3 218.954 129.094 C 221.163 128.991 221.908 128.862 223.218 128.273 C 224.066 127.887 225.119 127.221 225.528 126.784 L 226.248 126.012 L 226.376 127.399 L 226.505 128.761 L 230.818 128.837 L 235.108 128.889 L 235.108 114.637 L 235.108 100.385 L 230.742 100.385 L 226.376 100.385 L 226.376 101.824 L 226.376 103.236 L 225.272 102.44 C 223.398 101.104 221.678 100.591 218.672 100.489 C 216.978 100.437 215.488 100.515 214.641 100.744 Z M 222.755 108.602 C 224.732 109.602 225.863 111.735 225.863 114.457 C 225.863 117.564 224.835 119.492 222.602 120.569 C 218.801 122.443 214.616 119.875 214.152 115.357 C 213.589 110.067 218.338 106.344 222.755 108.602 Z" stroke="none" style="fill: rgb(47, 44, 44);"/>
  <path d="M -70.213 129.788 L -70.213 132.741 L -68.929 132.741 L -67.647 132.741 L -67.647 129.788 L -67.647 126.834 L -68.929 126.834 L -70.213 126.834 L -70.213 129.788 Z" stroke="none" fill="#000000" style=""/>
  <g clip-path="url(#clip0_1371_2450)" transform="matrix(0.636953, 0, 0, 0.636953, -164.969177, 83.693512)" style="">
    <path fill-rule="evenodd" clip-rule="evenodd" d="M102 0V77H132.988V67.6097H111.39V9.39017H123.27V0H102Z" fill="#2F2C2C"/>
    <path fill-rule="evenodd" clip-rule="evenodd" d="M129.656 9.39017H133.856V0H129.656V9.39017Z" fill="#2F2C2C"/>
    <path fill-rule="evenodd" clip-rule="evenodd" d="M148.113 0V9.39017H169.711V67.6097H157.831V77H179.101V0H148.113Z" fill="#2F2C2C"/>
    <path fill-rule="evenodd" clip-rule="evenodd" d="M148.529 77H152.729V67.6097H148.529V77Z" fill="#2F2C2C"/>
    <path fill-rule="evenodd" clip-rule="evenodd" d="M127.658 19.5438V31.3827L144.025 38.8122H144.025L157.064 32.8931L127.658 19.5438Z" fill="#D85556"/>
    <path fill-rule="evenodd" clip-rule="evenodd" d="M157.064 32.8931V32.8931L144.025 38.8121L127.658 46.2419V58.0808L157.064 44.7315V32.8931Z" fill="#F15D61"/>
  </g>
</svg>